<?xml version="1.0" encoding="UTF-8"?><svg id="Ebene_1" xmlns="http://www.w3.org/2000/svg" viewBox="0 0 450.62 102.74"><defs><style>.cls-1{fill:#00aeef;}.cls-2{fill:#ed1c24;}</style></defs><path d="m68.72,51.59c.13,3.48,1.58,6.62,3.88,8.93,2.3,2.3,5.44,3.75,8.93,3.88v-12.81h-12.81Z"/><path d="m82.03,51.59v12.83c.17,0,.33-.02.5-.03v-12.81h-.5Z"/><path d="m81.53,50.59h-12.81c0,.17-.03.33-.03.5h12.83v-.5Z"/><path d="m81.53,51.59v12.81c.17,0,.33.03.5.03v-12.83h-.5Z"/><path d="m81.53,51.09h-12.83c0,.17.02.33.03.5h12.81v-.5Z"/><path d="m82.53,37.79v12.81h12.81c-.13-3.48-1.58-6.62-3.88-8.93-2.3-2.3-5.44-3.75-8.93-3.88Z"/><path d="m82.03,50.59v-12.83c-.17,0-.33.02-.5.03v12.81h.5Z"/><path d="m82.53,51.59h12.81c0-.17.03-.33.03-.5h-12.83v.5Z"/><rect x="82.03" y="51.09" width=".5" height=".5"/><rect x="81.53" y="50.59" width=".5" height=".5"/><rect x="81.53" y="51.09" width=".5" height=".5"/><path d="m82.53,51.09h12.83c0-.17-.02-.33-.03-.5h-12.81v.5Z"/><path d="m82.53,50.59v-12.81c-.17,0-.33-.03-.5-.03v12.83h.5Z"/><rect x="82.03" y="50.59" width=".5" height=".5"/><path d="m82.03,65.42c7.91,0,14.33-6.42,14.33-14.33h-.5c0,.17-.02.33-.03.5-.26,7.24-6.07,13.05-13.31,13.31-.17,0-.33.03-.5.03s-.33-.02-.5-.03c-7.24-.26-13.05-6.07-13.31-13.31,0-.17-.03-.33-.03-.5s.02-.33.03-.5c.26-7.24,6.07-13.05,13.31-13.31.17,0,.33-.03.5-.03s.33.02.5.03c7.24.26,13.05,6.07,13.31,13.31,0,.17.03.33.03.5h.5c0-7.91-6.42-14.33-14.33-14.33-7.91,0-14.33,6.42-14.33,14.33,0,7.91,6.42,14.33,14.33,14.33Z"/><path d="m91.46,60.52c-2.3,2.3-5.44,3.75-8.93,3.88v.5c7.24-.26,13.05-6.07,13.31-13.31h-.5c-.13,3.48-1.58,6.62-3.88,8.93Z"/><path d="m72.6,41.67c2.3-2.3,5.44-3.75,8.93-3.88v-.5c-7.24.26-13.05,6.07-13.31,13.31h.5c.13-3.48,1.58-6.62,3.88-8.93Z"/><path d="m72.6,60.52c-2.3-2.3-3.75-5.44-3.88-8.93h-.5c.26,7.24,6.07,13.05,13.31,13.31v-.5c-3.48-.13-6.62-1.58-8.93-3.88Z"/><path d="m68.72,50.59h-.5c0,.17-.03.33-.03.5h.5c0-.17.02-.33.03-.5Z"/><path d="m82.03,64.42v.5c.17,0,.33-.02.5-.03v-.5c-.17,0-.33.03-.5.03Z"/><path d="m81.53,64.4v.5c.17,0,.33.03.5.03v-.5c-.17,0-.33-.02-.5-.03Z"/><path d="m68.7,51.09h-.5c0,.17.02.33.03.5h.5c0-.17-.03-.33-.03-.5Z"/><path d="m91.46,41.67c2.3,2.3,3.75,5.44,3.88,8.93h.5c-.26-7.24-6.07-13.05-13.31-13.31v.5c3.48.13,6.62,1.58,8.93,3.88Z"/><path d="m95.34,51.59h.5c0-.17.03-.33.03-.5h-.5c0,.17-.02.33-.03.5Z"/><path d="m82.03,37.76v-.5c-.17,0-.33.02-.5.03v.5c.17,0,.33-.03.5-.03Z"/><path d="m95.34,50.59c0,.17.03.33.03.5h.5c0-.17-.02-.33-.03-.5h-.5Z"/><path d="m82.53,37.79v-.5c-.17,0-.33-.03-.5-.03v.5c.17,0,.33.02.5.03Z"/><path d="m143.53,44.12v-7.39c0-2.77-1.36-4.15-4.08-4.15-.77,0-1.46.15-2.09.44-.63.29-1.12.71-1.46,1.25h-.12l-.34-1.49h-1.89v11.34h2.41v-5.65c0-1.42.24-2.42.71-3.02s1.22-.9,2.24-.9c.77,0,1.32.22,1.68.65.35.43.53,1.08.53,1.96v6.97h2.42Z"/><path d="m151.63,34.58c.66,0,1.5.2,2.52.59l.73-1.94c-.96-.44-2.03-.67-3.23-.67-1.76,0-3.11.51-4.04,1.54-.93,1.03-1.4,2.49-1.4,4.4s.45,3.31,1.34,4.31c.89,1,2.2,1.5,3.91,1.5.7,0,1.29-.05,1.78-.16.49-.11.95-.29,1.38-.54v-2.1c-.96.53-1.97.8-3.05.8-.94,0-1.66-.32-2.15-.96-.49-.64-.73-1.59-.73-2.87,0-2.6.98-3.91,2.94-3.91Z"/><path d="m166.52,39.81c0-.99-.3-1.79-.9-2.38s-1.5-.97-2.71-1.12v-.08c1.01-.22,1.79-.64,2.34-1.28.55-.63.83-1.42.83-2.37,0-1.14-.42-2.04-1.27-2.69s-2.03-.97-3.54-.97c-1.82,0-3.41.51-4.79,1.52l1.18,1.68c.72-.46,1.34-.78,1.87-.94.53-.16,1.07-.24,1.64-.24.81,0,1.43.17,1.85.52.42.35.62.84.62,1.49,0,1.65-1.2,2.48-3.59,2.48h-1.32v1.96h1.3c1.36,0,2.36.19,2.99.56s.95.96.95,1.76c0,.9-.29,1.57-.86,2s-1.44.65-2.6.65c-.66,0-1.34-.09-2.05-.26-.71-.17-1.38-.41-2.02-.73v2.14c1.14.54,2.54.81,4.2.81,1.88,0,3.33-.39,4.35-1.17s1.53-1.9,1.53-3.34Z"/><polygon points="137.41 68.08 141.85 68.08 141.85 55.29 145.84 55.29 145.84 51.66 133.4 51.66 133.4 55.29 137.41 55.29 137.41 68.08"/><path d="m159.07,67.37v-3.16c-.76.35-1.46.6-2.11.75-.65.15-1.36.22-2.13.22-.85,0-1.51-.2-2-.61s-.75-.96-.78-1.67h7.85v-1.95c0-1.88-.52-3.32-1.57-4.32-1.04-1-2.53-1.5-4.44-1.5-2.01,0-3.56.58-4.65,1.72-1.08,1.15-1.63,2.8-1.63,4.95s.59,3.68,1.76,4.81,2.82,1.69,4.94,1.69c1.02,0,1.89-.07,2.63-.2s1.45-.38,2.13-.73Zm-6.32-8.77c.35-.33.78-.49,1.3-.49.56,0,1.01.18,1.34.55s.51.86.52,1.47h-3.77c.06-.7.26-1.21.61-1.53Z"/><path d="m171.16,61.19c-.44-.35-1.1-.71-1.99-1.08-1.2-.47-1.92-.78-2.17-.94s-.38-.34-.38-.56c0-.35.36-.53,1.08-.53.41,0,.94.09,1.59.28s1.27.41,1.85.67l1.19-2.83c-.79-.35-1.56-.62-2.3-.8s-1.53-.28-2.36-.28c-1.67,0-2.96.33-3.87.99-.91.66-1.37,1.58-1.37,2.76,0,.94.23,1.71.7,2.32.46.61,1.28,1.16,2.45,1.63,1.28.51,2.05.85,2.32,1.03s.4.38.4.6c0,.43-.48.65-1.43.65-.64,0-1.36-.1-2.17-.29s-1.56-.44-2.24-.74v3.52c.73.27,1.44.45,2.13.56.7.1,1.52.15,2.46.15,1.74,0,3.07-.35,4-1.04.93-.7,1.39-1.73,1.39-3.09,0-.68-.1-1.26-.31-1.74s-.53-.89-.97-1.24Z"/><path d="m175.72,63.89c0,1.5.33,2.61.98,3.33.65.72,1.71,1.08,3.19,1.08.72,0,1.35-.05,1.88-.16s1.1-.29,1.69-.54v-3.2c-.82.29-1.53.44-2.12.44-.79,0-1.19-.41-1.19-1.23v-4.95h3.12v-3.29h-3.12v-2.55h-2.88l-1.13,2.67-1.95,1.38v1.79h1.54v5.24Z"/><path d="m189.93,50.73c-.38-.33-.97-.49-1.79-.49s-1.41.16-1.77.48-.55.81-.55,1.47c0,1.29.78,1.93,2.33,1.93s2.35-.64,2.35-1.93c0-.64-.19-1.13-.56-1.46Z"/><rect x="185.94" y="55.35" width="4.39" height="12.72"/><path d="m206.05,68.08v-8.28c0-1.48-.39-2.63-1.17-3.45s-1.88-1.22-3.29-1.22c-.86,0-1.62.15-2.29.45-.66.3-1.18.75-1.56,1.35h-.26l-.55-1.57h-3.31v12.72h4.39v-5.57c0-1.44.17-2.45.49-3.04.33-.59.86-.89,1.61-.89.54,0,.93.21,1.17.65s.37,1.07.37,1.92v6.94h4.39Z"/><path d="m221.27,55.35h-4.44c-.27-.04-.69-.09-1.26-.15-.57-.05-.97-.08-1.2-.08-1.75,0-3.1.38-4.04,1.15s-1.42,1.84-1.42,3.22c0,.89.19,1.65.57,2.27s.9,1.08,1.56,1.37c-.69.42-1.14.78-1.36,1.08-.22.3-.33.65-.33,1.05,0,.36.14.72.43,1.09.29.37.63.63,1.02.8-1.89.44-2.83,1.42-2.83,2.94,0,1.13.49,2,1.47,2.6.98.6,2.37.9,4.17.9,2.39,0,4.24-.43,5.56-1.29,1.32-.86,1.98-2.07,1.98-3.62,0-2.4-1.43-3.6-4.28-3.6h-2.11c-.57,0-1.03-.06-1.38-.17s-.53-.28-.53-.5c0-.17.05-.36.16-.55.28.06.65.09,1.12.09,1.91,0,3.34-.38,4.31-1.13s1.44-1.82,1.44-3.19c0-.58-.12-1.08-.36-1.52l1.74-.64v-2.12Zm-7.91,13.16h1.72c.73,0,1.28.07,1.67.21s.58.38.58.71c0,.42-.32.76-.96,1.03-.64.27-1.49.4-2.55.4-.65,0-1.17-.11-1.56-.33s-.58-.51-.58-.87c0-.32.16-.59.49-.81.33-.22.72-.33,1.2-.33Zm2.03-7.52c-.23.32-.55.48-.97.48-.91,0-1.36-.65-1.36-1.95s.45-1.95,1.36-1.95,1.31.66,1.31,1.98c0,.64-.11,1.13-.34,1.45Z"/><path d="m229.89,51.66v16.42h4.44v-5.45h1.25c1.99,0,3.53-.5,4.61-1.5,1.08-1,1.62-2.42,1.62-4.25,0-1.67-.52-2.96-1.56-3.86-1.04-.91-2.6-1.36-4.67-1.36h-5.68Zm7.42,5.25c0,.66-.2,1.17-.59,1.55-.39.38-.92.56-1.59.56h-.81v-3.77h1.14c1.23,0,1.84.55,1.84,1.66Z"/><rect x="244.39" y="50.6" width="4.39" height="17.47"/><path d="m258.27,55.13c-2.26,0-4.13.38-5.62,1.15l1.27,2.9c1.43-.63,2.61-.94,3.54-.94,1.03,0,1.55.52,1.55,1.57v.18l-2.12.07c-1.79.08-3.16.45-4.1,1.12-.94.66-1.42,1.67-1.42,3.03s.34,2.31,1.03,3.03,1.63,1.08,2.83,1.08c.97,0,1.77-.13,2.38-.4s1.22-.77,1.81-1.5h.09l.84,1.68h3.04v-8.34c0-1.45-.45-2.58-1.34-3.39s-2.16-1.21-3.79-1.21Zm.76,8.25c0,.54-.19.98-.57,1.31-.38.34-.83.51-1.36.51-.83,0-1.25-.39-1.25-1.17,0-1.01.72-1.54,2.17-1.59l1.01-.04v.99Z"/><path d="m271.66,63.6v-4.95h3.12v-3.29h-3.12v-2.55h-2.88l-1.13,2.67-1.95,1.38v1.79h1.54v5.24c0,1.5.33,2.61.98,3.33.65.72,1.71,1.08,3.19,1.08.72,0,1.35-.05,1.88-.16s1.1-.29,1.69-.54v-3.2c-.82.29-1.53.44-2.12.44-.79,0-1.19-.41-1.19-1.23Z"/><path d="m282.73,54.01c.15-.21.4-.31.74-.31.52,0,1.04.08,1.58.22l.94-2.84c-.69-.22-1.29-.38-1.81-.47s-1.07-.13-1.66-.13c-1.51,0-2.61.37-3.3,1.1-.69.73-1.03,1.94-1.03,3.62v.21l-1.77,1.08v2.16h1.68v9.43h4.39v-9.43h2.71v-3.29h-2.71v-.34c0-.46.08-.8.23-1.01Z"/><path d="m296.31,55.93c-.96-.53-2.06-.8-3.31-.8-2.02,0-3.59.58-4.71,1.72s-1.68,2.76-1.68,4.83.57,3.64,1.71,4.83c1.14,1.19,2.68,1.79,4.61,1.79s3.58-.58,4.7-1.75,1.68-2.79,1.68-4.87c0-1.32-.26-2.48-.78-3.48s-1.26-1.75-2.22-2.29Zm-1.89,8.26c-.28.57-.76.86-1.44.86s-1.18-.29-1.47-.86c-.29-.57-.44-1.41-.44-2.5s.15-1.91.44-2.46c.29-.55.77-.83,1.45-.83s1.18.28,1.46.83c.28.55.43,1.37.43,2.46s-.14,1.93-.42,2.5Z"/><path d="m309.73,55.13c-.67,0-1.33.21-1.98.62-.66.42-1.17.96-1.53,1.63h-.21l-.68-2.03h-3.27v12.72h4.39v-6.26c0-.82.22-1.45.65-1.89.43-.44,1.13-.66,2.09-.66.64,0,1.13.04,1.49.13l.39-4.14-.25-.04c-.34-.06-.71-.09-1.09-.09Z"/><path d="m328.67,55.13c-.77,0-1.48.15-2.12.44-.64.3-1.14.71-1.5,1.23h-.35c-.74-1.12-2.03-1.67-3.86-1.67-.82,0-1.54.15-2.18.46-.64.31-1.13.75-1.47,1.34h-.26l-.55-1.57h-3.31v12.72h4.39v-5.57c0-1.39.16-2.4.47-3.01s.82-.92,1.5-.92c.5,0,.86.21,1.09.65s.34,1.08.34,1.94v6.92h4.4v-5.93c0-1.23.16-2.13.47-2.71.31-.58.81-.86,1.48-.86.51,0,.88.21,1.12.65.24.43.35,1.08.35,1.94v6.92h4.39v-8.28c0-1.57-.36-2.74-1.08-3.51s-1.83-1.16-3.34-1.16Z"/><path class="cls-1" d="m57.22,51.09c0,13.81,11.2,25.01,25.01,25.01,8.72,0,16.4-4.47,20.88-11.24-.45.03-.91.04-1.37.04-3.17,0-6.21-.6-9-1.68-2.82,2.44-6.49,3.92-10.51,3.92-8.87,0-16.05-7.19-16.05-16.05s7.19-16.05,16.05-16.05c4.02,0,7.69,1.48,10.5,3.92,2.79-1.08,5.83-1.67,9.01-1.67.46,0,.92.02,1.37.04-4.48-6.77-12.15-11.24-20.88-11.24-13.81,0-25.01,11.2-25.01,25.01Z"/><path class="cls-2" d="m101.75,14.9c-7.57,0-14.35,3.37-18.94,8.69,3.86.08,7.53.95,10.85,2.46,2.38-1.39,5.14-2.19,8.09-2.19,8.87,0,16.05,7.19,16.05,16.05,0,.26,0,.52-.02.78,0,.2-.03.4-.04.59v.16c-.04.24-.07.49-.1.73h0c-.49,3.46-2.08,6.56-4.4,8.94,2.32,2.38,3.91,5.48,4.4,8.94h0c.03.24.06.49.09.73v.16c.03.2.05.39.05.59.01.26.02.52.02.78,0,8.87-7.19,16.05-16.05,16.05-2.98,0-5.76-.81-8.15-2.23-3.32,1.5-6.98,2.37-10.84,2.44,4.59,5.35,11.39,8.74,18.99,8.74,13.81,0,25.01-11.2,25.01-25.01,0-4.03-.96-7.83-2.65-11.2,1.69-3.37,2.65-7.17,2.65-11.2,0-13.81-11.2-25.01-25.01-25.01Z"/><path class="cls-2" d="m44.63,40.02c0-8.88,7.19-16.07,16.07-16.07,3.28,0,6.32.98,8.86,2.67,3.07-1.59,6.47-2.63,10.07-2.97-4.59-5.3-11.36-8.67-18.93-8.67-13.83,0-25.03,11.21-25.03,25.03l-.02,11.48h9v-11.48Z"/></svg>